<?xml version="1.0" standalone="no" ?>
<!DOCTYPE svg PUBLIC "-//W3C//DTD SVG 1.1//EN" "http://www.w3.org/Graphics/SVG/1.1/DTD/svg11.dtd">
<svg width="274" height="12" viewBox="0 0 274 12" version="1.1" xmlns="http://www.w3.org/2000/svg">
	<desc>(10400452-3-4CC4CC4CC4CC4CC4CC4CC4CC4CC6)</desc>
	<g id="bars" fill="black" stroke="none">
		<rect x="4" y="0" width="2" height="12" />
		<rect x="8" y="4" width="2" height="8" />
		<rect x="12" y="0" width="2" height="12" />
		<rect x="16" y="0" width="2" height="12" />
		<rect x="20" y="4" width="2" height="4" />
		<rect x="24" y="0" width="2" height="12" />
		<rect x="28" y="4" width="2" height="4" />
		<rect x="32" y="4" width="2" height="4" />
		<rect x="36" y="0" width="2" height="12" />
		<rect x="40" y="0" width="2" height="8" />
		<rect x="44" y="4" width="2" height="8" />
		<rect x="48" y="0" width="2" height="12" />
		<rect x="52" y="4" width="2" height="4" />
		<rect x="56" y="4" width="2" height="4" />
		<rect x="60" y="0" width="2" height="12" />
		<rect x="64" y="4" width="2" height="4" />
		<rect x="68" y="4" width="2" height="4" />
		<rect x="72" y="0" width="2" height="12" />
		<rect x="76" y="0" width="2" height="8" />
		<rect x="80" y="4" width="2" height="8" />
		<rect x="84" y="0" width="2" height="12" />
		<rect x="88" y="4" width="2" height="4" />
		<rect x="92" y="0" width="2" height="12" />
		<rect x="96" y="0" width="2" height="12" />
		<rect x="100" y="4" width="2" height="8" />
		<rect x="104" y="0" width="2" height="8" />
		<rect x="108" y="4" width="2" height="4" />
		<rect x="112" y="0" width="2" height="12" />
		<rect x="116" y="4" width="2" height="4" />
		<rect x="120" y="4" width="2" height="8" />
		<rect x="124" y="0" width="2" height="12" />
		<rect x="128" y="0" width="2" height="8" />
		<rect x="132" y="4" width="2" height="4" />
		<rect x="136" y="0" width="2" height="12" />
		<rect x="140" y="4" width="2" height="4" />
		<rect x="144" y="0" width="2" height="12" />
		<rect x="148" y="0" width="2" height="8" />
		<rect x="152" y="4" width="2" height="8" />
		<rect x="156" y="4" width="2" height="4" />
		<rect x="160" y="4" width="2" height="8" />
		<rect x="164" y="0" width="2" height="8" />
		<rect x="168" y="4" width="2" height="4" />
		<rect x="172" y="4" width="2" height="8" />
		<rect x="176" y="0" width="2" height="8" />
		<rect x="180" y="4" width="2" height="4" />
		<rect x="184" y="4" width="2" height="8" />
		<rect x="188" y="0" width="2" height="8" />
		<rect x="192" y="4" width="2" height="4" />
		<rect x="196" y="4" width="2" height="8" />
		<rect x="200" y="0" width="2" height="8" />
		<rect x="204" y="4" width="2" height="4" />
		<rect x="208" y="4" width="2" height="8" />
		<rect x="212" y="0" width="2" height="8" />
		<rect x="216" y="4" width="2" height="4" />
		<rect x="220" y="4" width="2" height="8" />
		<rect x="224" y="0" width="2" height="8" />
		<rect x="228" y="4" width="2" height="4" />
		<rect x="232" y="4" width="2" height="8" />
		<rect x="236" y="0" width="2" height="8" />
		<rect x="240" y="4" width="2" height="4" />
		<rect x="244" y="4" width="2" height="8" />
		<rect x="248" y="0" width="2" height="8" />
		<rect x="252" y="4" width="2" height="4" />
		<rect x="256" y="0" width="2" height="8" />
		<rect x="260" y="4" width="2" height="8" />
		<rect x="264" y="4" width="2" height="8" />
		<rect x="268" y="0" width="2" height="12" />
	</g>
</svg>
